# xmcd CD database file
#
# Track frame offsets:
#	150
#	19452
#	42247
#	59217
#	74970
#	89100
#	96552
#	110782
#	135927
#	149897
#	171012
#	184875
#	198927
#
# Disc length: 2812 seconds
#
# Revision: 0
# Processed by: cddbd v1.5.2PL0 Copyright (c) Steve Scherf et al.
# Submitted via: CDex 1.70beta2
#
DISCID=dd0afa0d
DTITLE=Lloyd Spiegel - Tall Stories
DYEAR=2006
DGENRE=Blues
TTITLE0=Blues, Leave Me Alone
TTITLE1=Dyin Slow
TTITLE2=Loretta
TTITLE3=New York City
TTITLE4=Confession
TTITLE5=Before The Storm
TTITLE6=The Storm
TTITLE7=Road, Dirt And Rail
TTITLE8=One, Of These Days
TTITLE9=Goin Out West
TTITLE10=Who Do You Love
TTITLE11=Mississippi Sun
TTITLE12=If I Killed You When I Mwt You
EXTD=YEAR: 2006
EXTT0=
EXTT1=
EXTT2=
EXTT3=
EXTT4=
EXTT5=
EXTT6=
EXTT7=
EXTT8=
EXTT9=
EXTT10=
EXTT11=
EXTT12=
PLAYORDER=
